<svg width="128" height="30" viewBox="0 0 128 30" fill="none" xmlns="http://www.w3.org/2000/svg">
<path d="M58 1.30261L58.0308 2.30214L58 1.30261ZM126.707 27.1958C127.247 27.0817 127.593 26.5512 127.478 26.0108L125.62 17.2048C125.506 16.6644 124.975 16.3188 124.435 16.4329C123.895 16.5469 123.549 17.0774 123.663 17.6178L125.315 25.4454L117.488 27.0974C116.947 27.2114 116.602 27.7419 116.716 28.2823C116.83 28.8227 117.36 29.1683 117.901 29.0543L126.707 27.1958ZM1.50005 22.2173C2.0435 23.0568 2.04347 23.0568 2.04356 23.0567C2.04375 23.0566 2.04396 23.0565 2.04434 23.0562C2.04509 23.0557 2.04631 23.0549 2.04801 23.0539C2.05139 23.0517 2.05666 23.0483 2.06378 23.0437C2.07803 23.0345 2.09972 23.0206 2.12872 23.0021C2.18671 22.965 2.27391 22.9095 2.38919 22.8367C2.61975 22.6912 2.96262 22.4768 3.40883 22.2031C4.3013 21.6557 5.60685 20.8712 7.25371 19.9267C10.5482 18.0373 15.2045 15.5097 20.6491 12.9584C31.567 7.84239 45.5404 2.68626 58.0308 2.30214L57.9693 0.303085C45.059 0.700118 30.7825 6.00134 19.8005 11.1474C14.2952 13.7271 9.58915 16.2817 6.25871 18.1918C4.59312 19.147 3.27059 19.9416 2.36309 20.4983C1.90931 20.7766 1.55923 20.9955 1.32184 21.1453C1.20314 21.2202 1.1126 21.2779 1.05136 21.317C1.02073 21.3366 0.997432 21.3516 0.981593 21.3618C0.973673 21.3669 0.967619 21.3708 0.963447 21.3735C0.961362 21.3748 0.959747 21.3758 0.958605 21.3766C0.958034 21.377 0.957533 21.3773 0.957247 21.3775C0.956864 21.3777 0.9566 21.3779 1.50005 22.2173ZM58.0308 2.30214C72.2257 1.8656 89.1679 8.00252 102.66 14.3321C109.385 17.4871 115.213 20.6706 119.36 23.0654C121.433 24.2625 123.084 25.2619 124.216 25.9611C124.782 26.3107 125.218 26.5852 125.512 26.7718C125.659 26.8651 125.77 26.9365 125.844 26.9842C125.881 27.0081 125.909 27.0261 125.928 27.038C125.937 27.044 125.944 27.0484 125.948 27.0513C125.95 27.0527 125.952 27.0537 125.953 27.0544C125.953 27.0547 125.954 27.0549 125.954 27.0551C125.954 27.0552 125.954 27.0552 126.5 26.2173C127.046 25.3794 127.046 25.3792 127.045 25.379C127.045 25.3787 127.044 25.3783 127.044 25.3779C127.042 25.377 127.04 25.3757 127.038 25.374C127.032 25.3706 127.025 25.3657 127.015 25.3592C126.995 25.3463 126.965 25.3273 126.927 25.3024C126.849 25.2526 126.735 25.1791 126.584 25.0837C126.284 24.8928 125.841 24.6138 125.267 24.2595C124.12 23.5511 122.452 22.5415 120.36 21.3335C116.177 18.9179 110.298 15.7062 103.509 12.5214C89.974 6.17154 72.6661 -0.148889 57.9693 0.303085L58.0308 2.30214Z" fill="white"/>
</svg>
