<svg width="108" height="24" viewBox="0 0 108 24" fill="none" xmlns="http://www.w3.org/2000/svg">
<path d="M48.3498 22.3426L48.2876 23.3406L48.3498 22.3426ZM106.741 2.45174C107.277 2.58485 107.604 3.12728 107.471 3.66328L105.301 12.398C105.168 12.934 104.626 13.2606 104.09 13.1275C103.554 12.9943 103.227 12.4519 103.36 11.9159L105.288 4.15176L97.5243 2.22359C96.9883 2.09047 96.6617 1.54805 96.7948 1.01205C96.9279 0.476043 97.4703 0.149435 98.0063 0.282547L106.741 2.45174ZM1.5 3.42224C2.06704 2.59855 2.067 2.59852 2.06705 2.59855C2.0672 2.59866 2.06734 2.59876 2.06764 2.59896C2.06822 2.59936 2.0692 2.60003 2.07056 2.60097C2.07328 2.60283 2.07755 2.60576 2.08334 2.60972C2.09493 2.61765 2.11263 2.62974 2.13634 2.64586C2.18375 2.67811 2.25516 2.72648 2.34968 2.78995C2.53871 2.91688 2.82011 3.10418 3.1866 3.34358C3.91963 3.82243 4.99278 4.50955 6.3479 5.33898C9.05888 6.99828 12.8945 9.22474 17.39 11.4918C26.4091 16.04 37.9733 20.6938 48.412 21.3445L48.2876 23.3406C37.4326 22.664 25.5719 17.8577 16.4895 13.2776C11.9343 10.9805 8.05004 8.72569 5.30382 7.04481C3.93034 6.20415 2.84056 5.50645 2.09281 5.01799C1.71891 4.77374 1.43046 4.58177 1.23474 4.45034C1.13688 4.38463 1.06219 4.33405 1.01159 4.29963C0.986295 4.28243 0.967018 4.26927 0.953875 4.26027C0.947304 4.25578 0.942266 4.25232 0.938777 4.24993C0.937032 4.24873 0.935674 4.2478 0.934705 4.24713C0.934221 4.2468 0.933786 4.2465 0.933543 4.24633C0.933206 4.2461 0.932966 4.24593 1.5 3.42224ZM48.412 21.3445C60.2736 22.0838 74.6267 17.4383 86.1146 12.529C91.8375 10.0833 96.8096 7.58984 100.351 5.70782C102.121 4.76705 103.532 3.9797 104.5 3.42834C104.983 3.15268 105.356 2.93606 105.607 2.78881C105.733 2.71519 105.828 2.65891 105.891 2.62127C105.923 2.60245 105.946 2.58829 105.962 2.57896C105.97 2.57429 105.975 2.57082 105.979 2.56859C105.981 2.56747 105.982 2.56666 105.983 2.56615C105.984 2.5659 105.984 2.56576 105.984 2.56563C105.984 2.56556 105.984 2.56557 106.5 3.42226C107.016 4.27895 107.016 4.27912 107.015 4.27936C107.015 4.27954 107.014 4.27986 107.014 4.28023C107.012 4.28097 107.011 4.28202 107.008 4.28337C107.004 4.28608 106.997 4.29002 106.989 4.29517C106.972 4.30546 106.946 4.32058 106.913 4.34037C106.846 4.37995 106.748 4.43821 106.619 4.51385C106.361 4.66513 105.981 4.88596 105.49 5.16598C104.507 5.72599 103.079 6.52293 101.289 7.47388C97.7117 9.3753 92.6876 11.895 86.9005 14.3681C75.3684 19.2963 60.6464 24.1109 48.2876 23.3406L48.412 21.3445Z" fill="white"/>
</svg>
