<svg width="34" height="40" viewBox="0 0 34 40" fill="none" xmlns="http://www.w3.org/2000/svg">
<path d="M16.5935 2.36607C24.4493 2.36607 30.8157 8.71982 30.8157 16.5572H33.1869C33.1869 7.41298 25.759 0 16.5935 0C7.42921 0 0 7.41298 0 16.5572H2.37125C2.37125 8.71982 8.73891 2.36607 16.5935 2.36607Z" fill="#FCF5B1"/>
<path d="M33.1872 16.5571H0.000610352V18.7187H33.1872V16.5571Z" fill="#FCF5B1"/>
<path d="M33.1869 20.7188V30.5867C33.1869 36.0054 29.8208 38.9173 25.0327 38.9173C21.0977 38.9173 18.5374 36.895 17.7788 34.55C17.1152 36.5717 14.7921 39.9282 9.57673 39.9282C2.93981 39.9282 0 35.682 0 30.748V20.7188H33.1869ZM2.37059 22.8622V30.829C2.37059 34.5497 4.55144 37.6635 9.43451 37.6635C13.6537 37.6635 16.5459 35.3584 16.5459 29.6565V22.8622H2.37059ZM18.9165 29.8584C18.9165 34.7519 21.0499 36.6122 24.8905 36.6122C28.1613 36.6122 30.8163 34.6712 30.8163 30.7079V22.8622H18.9165V29.8584Z" fill="#FCF5B1"/>
<path d="M9.20783 32.4676C10.7082 32.4676 11.9246 31.2572 11.9246 29.7641C11.9246 28.271 10.7082 27.0605 9.20783 27.0605C7.70741 27.0605 6.49109 28.271 6.49109 29.7641C6.49109 31.2572 7.70741 32.4676 9.20783 32.4676Z" fill="#FCF5B1"/>
<path d="M24.8662 32.4681C26.3666 32.4681 27.5829 31.2577 27.5829 29.7646C27.5829 28.2715 26.3666 27.061 24.8662 27.061C23.3657 27.061 22.1494 28.2715 22.1494 29.7646C22.1494 31.2577 23.3657 32.4681 24.8662 32.4681Z" fill="#FCF5B1"/>
<path d="M25.8049 30.5485C26.3232 30.5485 26.7434 30.1304 26.7434 29.6146C26.7434 29.0988 26.3232 28.6807 25.8049 28.6807C25.2866 28.6807 24.8665 29.0988 24.8665 29.6146C24.8665 30.1304 25.2866 30.5485 25.8049 30.5485Z" fill="#202026"/>
<path d="M10.1455 30.5485C10.6638 30.5485 11.084 30.1304 11.084 29.6146C11.084 29.0988 10.6638 28.6807 10.1455 28.6807C9.6272 28.6807 9.20703 29.0988 9.20703 29.6146C9.20703 30.1304 9.6272 30.5485 10.1455 30.5485Z" fill="#202026"/>
</svg>
