<svg width="303" height="231" viewBox="0 0 303 231" fill="none" xmlns="http://www.w3.org/2000/svg">
<path d="M114.073 160.437C113.654 160.075 113.237 159.713 112.82 159.351L112.738 159.446C111.905 158.721 111.077 157.996 110.254 157.268L110.337 157.175C109.512 156.446 108.693 155.717 107.879 154.986L107.795 155.079C106.972 154.34 106.154 153.599 105.341 152.858L105.425 152.766C104.612 152.024 103.805 151.282 103.003 150.538L102.918 150.63C102.107 149.878 101.301 149.124 100.501 148.37L100.587 148.279C99.7845 147.523 98.988 146.767 98.1972 146.009L98.1107 146.099C97.3135 145.335 96.5221 144.571 95.7365 143.806L95.8237 143.716C95.0325 142.945 94.2473 142.174 93.468 141.402L93.38 141.491C92.5973 140.716 91.8207 139.94 91.0502 139.163L91.1389 139.075C90.3591 138.29 89.5856 137.503 88.8184 136.717L88.7289 136.804C87.9612 136.017 87.1999 135.23 86.4449 134.442L86.5352 134.356C85.7674 133.555 85.0062 132.754 84.2517 131.953L84.1607 132.038C83.406 131.237 82.6579 130.436 81.9167 129.634L82.0085 129.549C81.2559 128.735 80.5103 127.922 79.7717 127.108L79.6792 127.192C78.938 126.376 78.2039 125.56 77.4771 124.744L77.5704 124.661C76.8338 123.834 76.1046 123.008 75.3829 122.182L75.2887 122.265C74.5621 121.433 73.843 120.602 73.1316 119.772L73.2265 119.691C72.5065 118.85 71.7943 118.011 71.0902 117.172L70.9944 117.253C70.2835 116.406 69.5806 115.56 68.8859 114.715L68.9825 114.636C68.2798 113.782 67.5856 112.928 66.8998 112.076L66.8024 112.155C66.1086 111.292 65.4235 110.432 64.7471 109.572L64.8453 109.495C64.1609 108.625 63.4854 107.757 62.8191 106.891L62.72 106.967C62.0451 106.09 61.3795 105.214 60.7234 104.34L60.8233 104.265C60.1582 103.379 59.5027 102.495 58.8571 101.613L58.7563 101.687C58.1024 100.794 57.4586 99.9035 56.8249 99.0152L56.9267 98.9426C56.2822 98.0391 55.6483 97.1381 55.025 96.2399L54.9223 96.3112C54.292 95.403 53.6727 94.4975 53.0644 93.5952L53.168 93.5253C52.546 92.6026 51.9355 91.683 51.3367 90.767L51.2321 90.8354C50.6286 89.9122 50.037 88.9926 49.4575 88.0767L49.5631 88.0099C48.9659 87.0661 48.3814 86.1263 47.8099 85.1909L47.7032 85.2561C47.1264 84.312 46.5627 83.3723 46.0124 82.4372L46.1201 82.3738C45.555 81.4137 45.004 80.4585 44.4671 79.5086L44.3583 79.5701C43.8109 78.6014 43.2782 77.6381 42.7604 76.6805L42.8703 76.621C42.3439 75.6474 41.8329 74.6796 41.3375 73.7182L41.2264 73.7754C40.7134 72.7798 40.2171 71.7908 39.7378 70.8089L39.8502 70.7541C39.3628 69.7557 38.893 68.7647 38.4411 67.7815L38.3275 67.8337C37.8624 66.822 37.4161 65.8185 36.9889 64.8236L37.1038 64.7743C36.6616 63.7447 36.2399 62.7244 35.8389 61.7138L35.7227 61.7599C35.3111 60.7225 34.9212 59.6954 34.5533 58.679L34.6709 58.6365C34.2929 57.5921 33.9383 56.5592 33.6073 55.5383L33.4884 55.5768C33.1408 54.5047 32.8193 53.4457 32.5241 52.4005L32.6444 52.3665C32.3393 51.2863 32.0624 50.2209 31.8142 49.171L31.6926 49.1998C31.4342 48.1071 31.2068 47.0312 31.0108 45.9728L31.1337 45.95C30.9297 44.8482 30.7597 43.7656 30.6244 42.7032L30.5004 42.719C30.3584 41.604 30.2544 40.5109 30.1889 39.4408L30.3137 39.4332C30.2452 38.3123 30.2191 37.217 30.2362 36.1484L30.1112 36.1464C30.1292 35.0189 30.195 33.9207 30.3095 32.8534L30.4338 32.8668C30.5536 31.7497 30.7269 30.6669 30.9545 29.62L30.8323 29.5935C31.0711 28.4947 31.3696 27.435 31.7287 26.4161L31.8466 26.4577C32.216 25.4096 32.6498 24.4054 33.1491 23.4469L33.0383 23.3891C33.5492 22.4084 34.1284 21.475 34.7772 20.5912L34.878 20.6652C35.2015 20.2245 35.5424 19.7962 35.9009 19.3806C36.2594 18.965 36.633 18.5648 37.0214 18.1801L36.9334 18.0913C37.7124 17.3197 38.5506 16.6097 39.4457 15.9603L39.5191 16.0615C40.3938 15.4269 41.3235 14.8503 42.306 14.331L42.2475 14.2205C43.2026 13.7156 44.2071 13.2648 45.2588 12.8672L45.303 12.9841C46.3051 12.6053 47.3507 12.2749 48.4381 11.9923L48.4067 11.8713C49.4456 11.6014 50.5221 11.375 51.6348 11.1916L51.6552 11.3149C52.7096 11.1412 53.7969 11.0061 54.9157 10.9093L54.9049 10.7848C55.973 10.6924 57.0695 10.6347 58.1933 10.6115L58.1958 10.7364C59.2667 10.7143 60.3625 10.7234 61.4823 10.7635L61.4868 10.6385C62.5625 10.677 63.6601 10.7439 64.7789 10.839L64.7683 10.9636C65.8432 11.0549 66.9377 11.1723 68.0511 11.3155L68.067 11.1915C69.1442 11.33 70.239 11.4926 71.3505 11.679L71.3298 11.8023C72.3883 11.9797 73.4621 12.1788 74.5506 12.3993L74.5754 12.2768C75.6348 12.4914 76.7081 12.7262 77.7946 12.9811L77.7661 13.1028C78.8246 13.3511 79.8958 13.6184 80.9791 13.9045L81.011 13.7837C82.0579 14.0602 83.1161 14.3543 84.1851 14.6657L84.1501 14.7857C85.189 15.0884 86.2383 15.4076 87.2974 15.743L87.3351 15.6239C88.3768 15.9538 89.4279 16.2994 90.4881 16.6607L90.4478 16.779C91.4715 17.1278 92.5038 17.4912 93.5442 17.869L93.5869 17.7515C94.6102 18.123 95.6412 18.5085 96.6798 18.9077L96.635 19.0244C97.6535 19.4159 98.6792 19.8207 99.7118 20.2387L99.7587 20.1228C100.765 20.5299 101.777 20.9495 102.795 21.3814L102.747 21.4965C103.756 21.9245 104.771 22.3646 105.792 22.8168L105.843 22.7025C106.834 23.1413 107.831 23.5914 108.832 24.0527L108.78 24.1663C109.774 24.624 110.773 25.0929 111.777 25.5727L111.831 25.4599C112.813 25.9291 113.8 26.4088 114.791 26.8988L114.735 27.0109C115.715 27.4955 116.7 27.9903 117.688 28.4951L117.745 28.3838C118.717 28.8801 119.692 29.3861 120.671 29.9018L120.613 30.0124C121.58 30.5216 122.551 31.0401 123.525 31.568L123.584 31.4581C124.545 31.9788 125.509 32.5085 126.476 33.0473L126.415 33.1565C127.37 33.6883 128.328 34.229 129.289 34.7783L129.351 34.6698C130.3 35.2126 131.252 35.7639 132.207 36.3236L132.144 36.4315C133.087 36.9847 134.033 37.5461 134.982 38.1157L135.046 38.0085C135.984 38.5716 136.923 39.1427 137.865 39.7216L137.8 39.8281C138.733 40.4015 139.668 40.9826 140.605 41.5714L140.671 41.4656C141.597 42.0474 142.524 42.6367 143.453 43.2334L143.386 43.3385C144.309 43.9312 145.233 44.5311 146.159 45.1384L146.228 45.0339C147.141 45.633 148.056 46.2393 148.973 46.8526L148.903 46.9565C149.816 47.5675 150.73 48.1856 151.646 48.8105L151.716 48.7073C152.618 49.3228 153.521 49.945 154.424 50.5739L154.353 50.6765C155.256 51.3052 156.16 51.9404 157.065 52.5823L157.138 52.4804C158.027 53.1115 158.918 53.749 159.809 54.3927L159.736 54.4941C160.627 55.1375 161.518 55.7872 162.409 56.4431L162.483 56.3425C163.365 56.9906 164.246 57.6449 165.128 58.3052L165.053 58.4053C165.931 59.0628 166.809 59.7262 167.688 60.3957L167.764 60.2963C168.636 60.961 169.509 61.6315 170.381 62.3079L170.304 62.4067C171.17 63.0777 172.036 63.7545 172.901 64.4369L172.979 64.3387C173.842 65.0195 174.705 65.7059 175.569 66.398L175.49 66.4955C176.344 67.1796 177.197 67.8691 178.049 68.564L178.128 68.4672C178.981 69.1623 179.834 69.8629 180.686 70.5689L180.606 70.6651C181.448 71.3631 182.29 72.0664 183.132 72.7748L183.212 72.6792C184.052 73.3866 184.892 74.0992 185.731 74.817L185.65 74.912C186.069 75.2707 186.488 75.6308 186.907 75.9921C187.326 76.3535 187.744 76.7152 188.16 77.0773L188.242 76.9829C189.075 77.7073 189.903 78.4331 190.727 79.1603L190.644 79.254C191.468 79.9822 192.287 80.7118 193.102 81.4426L193.185 81.3496C194.008 82.0887 194.827 82.8292 195.64 83.5708L195.555 83.6631C196.368 84.4044 197.175 85.1469 197.977 85.8904L198.062 85.7988C198.873 86.5509 199.679 87.3042 200.479 88.0583L200.394 88.1493C201.196 88.9052 201.992 89.662 202.783 90.4197L202.87 90.3294C203.667 91.0932 204.458 91.8578 205.244 92.623L205.157 92.7126C205.948 93.4833 206.733 94.2547 207.512 95.0266L207.6 94.9378C208.383 95.7131 209.16 96.489 209.93 97.2654L209.841 97.3534C210.621 98.1391 211.395 98.9253 212.162 99.7118L212.251 99.6245C213.019 100.411 213.78 101.199 214.535 101.986L214.445 102.073C215.213 102.874 215.974 103.675 216.729 104.476L216.82 104.39C217.574 105.192 218.322 105.993 219.064 106.795L218.972 106.879C219.724 107.693 220.47 108.507 221.209 109.32L221.301 109.236C222.042 110.053 222.776 110.869 223.503 111.684L223.41 111.768C224.147 112.594 224.876 113.421 225.597 114.246L225.692 114.164C226.418 114.996 227.137 115.826 227.849 116.657L227.754 116.738C228.474 117.578 229.186 118.418 229.89 119.256L229.986 119.176C230.697 120.023 231.4 120.868 232.094 121.713L231.998 121.793C232.7 122.647 233.395 123.5 234.08 124.352L234.178 124.274C234.872 125.136 235.557 125.997 236.233 126.856L236.135 126.934C236.819 127.803 237.495 128.671 238.161 129.538L238.26 129.462C238.935 130.339 239.601 131.215 240.257 132.089L240.157 132.164C240.822 133.05 241.478 133.934 242.123 134.815L242.224 134.741C242.878 135.634 243.522 136.525 244.155 137.413L244.054 137.486C244.698 138.39 245.332 139.291 245.955 140.189L246.058 140.117C246.688 141.026 247.308 141.931 247.916 142.833L247.812 142.903C248.434 143.826 249.045 144.746 249.644 145.662L249.748 145.593C250.352 146.516 250.943 147.436 251.523 148.352L251.417 148.419C252.014 149.363 252.599 150.302 253.17 151.238L253.277 151.173C253.854 152.117 254.418 153.056 254.968 153.991L254.86 154.055C255.425 155.015 255.976 155.97 256.513 156.92L256.622 156.859C257.169 157.827 257.702 158.791 258.22 159.748L258.11 159.808C258.636 160.781 259.147 161.749 259.643 162.71L259.754 162.653C260.267 163.649 260.763 164.638 261.242 165.62L261.13 165.675C261.617 166.673 262.087 167.664 262.539 168.647L262.653 168.595C263.118 169.607 263.564 170.61 263.991 171.605L263.877 171.654C264.319 172.684 264.74 173.704 265.141 174.715L265.258 174.669C265.669 175.706 266.059 176.733 266.427 177.75L266.309 177.792C266.687 178.837 267.042 179.869 267.373 180.89L267.492 180.852C267.839 181.924 268.161 182.983 268.456 184.028L268.336 184.062C268.641 185.142 268.918 186.208 269.166 187.258L269.288 187.229C269.546 188.322 269.773 189.397 269.969 190.456L269.847 190.479C270.051 191.58 270.221 192.663 270.356 193.725L270.48 193.71C270.622 194.825 270.726 195.918 270.791 196.988L270.667 196.995C270.735 198.116 270.761 199.212 270.744 200.28L270.869 200.282C270.851 201.41 270.785 202.508 270.671 203.575L270.547 203.562C270.427 204.679 270.253 205.762 270.026 206.809L270.148 206.835C269.909 207.934 269.611 208.994 269.252 210.013L269.134 209.971C268.764 211.019 268.33 212.023 267.831 212.982L267.942 213.04C267.431 214.02 266.852 214.954 266.203 215.837L266.102 215.763C265.779 216.204 265.438 216.632 265.079 217.048C264.721 217.464 264.347 217.864 263.959 218.249L264.047 218.337C263.268 219.109 262.43 219.819 261.535 220.468L261.461 220.367C260.586 221.002 259.657 221.578 258.674 222.098L258.733 222.208C257.778 222.713 256.773 223.164 255.721 223.561L255.677 223.445C254.675 223.823 253.63 224.154 252.542 224.436L252.574 224.557C251.535 224.827 250.458 225.054 249.345 225.237L249.325 225.114C248.271 225.287 247.183 225.423 246.065 225.519L246.075 225.644C245.007 225.736 243.911 225.794 242.787 225.817L242.784 225.692C241.714 225.714 240.618 225.705 239.498 225.665L239.494 225.79C238.418 225.752 237.32 225.685 236.201 225.59L236.212 225.465C235.137 225.374 234.043 225.256 232.929 225.113L232.913 225.237C231.836 225.099 230.741 224.936 229.63 224.75L229.65 224.626C228.592 224.449 227.518 224.25 226.43 224.029L226.405 224.152C225.346 223.937 224.272 223.702 223.186 223.448L223.214 223.326C222.156 223.078 221.085 222.81 220.001 222.524L219.969 222.645C218.922 222.368 217.864 222.074 216.795 221.763L216.83 221.643C215.791 221.34 214.742 221.021 213.683 220.686L213.645 220.805C212.604 220.475 211.552 220.129 210.492 219.768L210.533 219.65C209.509 219.301 208.476 218.937 207.436 218.56L207.393 218.677C206.37 218.306 205.339 217.92 204.3 217.521L204.345 217.404C203.327 217.013 202.301 216.608 201.268 216.19L201.222 216.306C200.216 215.899 199.203 215.479 198.185 215.047L198.234 214.932C197.224 214.504 196.209 214.064 195.188 213.612L195.137 213.726C194.146 213.287 193.15 212.837 192.148 212.376L192.2 212.262C191.206 211.805 190.207 211.336 189.203 210.856L189.149 210.969C188.167 210.5 187.181 210.02 186.19 209.53L186.245 209.418C185.265 208.933 184.281 208.438 183.292 207.934L183.235 208.045C182.264 207.549 181.288 207.043 180.309 206.527L180.367 206.416C179.4 205.907 178.43 205.389 177.456 204.861L177.396 204.971C176.435 204.45 175.471 203.92 174.504 203.381L174.565 203.272C173.61 202.74 172.652 202.2 171.691 201.65L171.629 201.759C170.68 201.216 169.728 200.665 168.773 200.105L168.837 199.997C167.893 199.444 166.947 198.883 165.999 198.313L165.934 198.42C164.997 197.857 164.057 197.286 163.115 196.707L163.18 196.601C162.247 196.027 161.312 195.446 160.376 194.857L160.309 194.963C159.383 194.381 158.456 193.792 157.527 193.195L157.594 193.09C156.672 192.497 155.747 191.898 154.821 191.29L154.753 191.395C153.839 190.796 152.924 190.189 152.008 189.576L152.077 189.472C151.164 188.861 150.25 188.243 149.334 187.618L149.264 187.721C148.362 187.106 147.46 186.484 146.556 185.855L146.627 185.752C145.724 185.124 144.82 184.488 143.915 183.846L143.843 183.948C142.953 183.317 142.062 182.68 141.171 182.036L141.244 181.935C140.354 181.291 139.463 180.641 138.571 179.986L138.497 180.086C137.616 179.438 136.734 178.784 135.852 178.123L135.927 178.023C135.049 177.366 134.171 176.702 133.292 176.033L133.217 176.132C132.344 175.468 131.472 174.797 130.599 174.121L130.676 174.022C129.81 173.351 128.945 172.674 128.079 171.992L128.002 172.09C127.138 171.409 126.275 170.723 125.412 170.031L125.49 169.933C124.637 169.249 123.784 168.56 122.931 167.865L122.852 167.962C121.999 167.266 121.147 166.566 120.295 165.86L120.374 165.764C119.532 165.066 118.69 164.362 117.848 163.654L117.768 163.749C116.928 163.042 116.088 162.329 115.249 161.612L115.331 161.517C114.911 161.158 114.492 160.798 114.073 160.437Z" stroke="#FFFBD5" stroke-width="0.25" stroke-dasharray="3.33 3.33"/>
<path d="M186.019 159.509C185.605 159.876 185.191 160.242 184.777 160.606L184.859 160.7C184.03 161.429 183.201 162.153 182.37 162.872L182.289 162.778C181.457 163.498 180.625 164.213 179.792 164.922L179.873 165.017C179.031 165.735 178.188 166.447 177.345 167.154L177.265 167.058C176.422 167.765 175.578 168.466 174.734 169.162L174.814 169.259C173.96 169.962 173.107 170.661 172.253 171.353L172.174 171.256C171.318 171.951 170.462 172.639 169.605 173.322L169.683 173.42C168.82 174.108 167.957 174.791 167.094 175.467L167.017 175.369C166.148 176.05 165.279 176.726 164.41 177.396L164.486 177.495C163.613 178.167 162.741 178.833 161.869 179.494L161.793 179.394C160.911 180.062 160.029 180.724 159.147 181.38L159.222 181.48C158.34 182.136 157.458 182.786 156.577 183.429L156.503 183.328C155.607 183.982 154.712 184.63 153.817 185.271L153.89 185.373C152.995 186.014 152.101 186.649 151.208 187.277L151.136 187.174C150.23 187.812 149.324 188.442 148.419 189.066L148.49 189.169C147.583 189.795 146.676 190.414 145.771 191.025L145.701 190.922C144.783 191.542 143.867 192.154 142.953 192.76L143.022 192.864C142.101 193.473 141.182 194.075 140.264 194.67L140.196 194.565C139.267 195.167 138.34 195.761 137.416 196.347L137.482 196.453C136.549 197.044 135.617 197.628 134.687 198.204L134.621 198.098C133.681 198.681 132.743 199.255 131.807 199.821L131.871 199.928C130.925 200.501 129.98 201.065 129.038 201.621L128.975 201.514C128.022 202.076 127.072 202.63 126.124 203.175L126.186 203.283C125.227 203.835 124.27 204.378 123.317 204.912L123.256 204.803C122.289 205.344 121.326 205.876 120.366 206.399L120.426 206.509C119.454 207.038 118.485 207.557 117.52 208.067L117.462 207.956C116.481 208.475 115.503 208.983 114.53 209.481L114.587 209.592C113.603 210.096 112.623 210.589 111.648 211.072L111.592 210.96C110.595 211.454 109.602 211.936 108.615 212.408L108.668 212.52C107.673 212.996 106.683 213.459 105.698 213.912L105.646 213.798C104.631 214.264 103.622 214.719 102.618 215.16L102.669 215.275C101.656 215.721 100.65 216.154 99.6499 216.575L99.6014 216.46C98.5746 216.892 97.5546 217.311 96.5416 217.717L96.588 217.833C95.5551 218.246 94.5294 218.646 93.5114 219.031L93.4671 218.915C92.432 219.307 91.4048 219.684 90.386 220.047L90.4279 220.165C89.3728 220.541 88.3265 220.901 87.2895 221.245L87.2502 221.126C86.1958 221.476 85.1511 221.81 84.1164 222.127L84.153 222.247C83.0884 222.573 82.0344 222.881 80.9914 223.172L80.9579 223.052C79.8785 223.353 78.8112 223.635 77.7562 223.898L77.7864 224.019C76.7035 224.289 75.6335 224.539 74.5772 224.768L74.5507 224.646C73.4653 224.881 72.3944 225.095 71.3385 225.287L71.3608 225.41C70.252 225.612 69.1596 225.79 68.0844 225.943L68.0667 225.819C66.9555 225.978 65.8627 226.11 64.7891 226.216L64.8014 226.341C63.6841 226.451 62.5875 226.533 61.5124 226.587L61.5062 226.462C60.387 226.517 59.2915 226.541 58.2204 226.534L58.2196 226.659C57.0956 226.651 55.9984 226.609 54.9291 226.531L54.9382 226.407C53.8182 226.325 52.7291 226.205 51.6724 226.046L51.6538 226.169C50.5386 226.001 49.459 225.79 48.4165 225.534L48.4463 225.413C47.3551 225.145 46.305 224.829 45.2978 224.465L45.2552 224.582C44.1981 224.199 43.1875 223.762 42.2255 223.27L42.2824 223.159C41.2929 222.653 40.3554 222.09 39.4719 221.467L39.3999 221.569C38.496 220.932 37.648 220.234 36.8585 219.473L36.9453 219.383C36.5516 219.004 36.1725 218.609 35.8083 218.198C35.4442 217.788 35.0974 217.364 34.7678 216.928L34.668 217.003C34.0071 216.129 33.4151 215.203 32.8907 214.23L33.0007 214.17C32.4882 213.219 32.0406 212.221 31.6568 211.178L31.5395 211.221C31.1663 210.207 30.8533 209.152 30.5993 208.056L30.7211 208.028C30.4791 206.985 30.2909 205.904 30.1557 204.789L30.0316 204.804C29.9024 203.738 29.8214 202.641 29.7878 201.514L29.9128 201.51C29.881 200.442 29.8919 199.346 29.945 198.225L29.8201 198.219C29.8708 197.148 29.9597 196.054 30.0864 194.937L30.2106 194.951C30.3312 193.887 30.4862 192.802 30.675 191.697L30.5518 191.676C30.7332 190.615 30.9457 189.536 31.189 188.44L31.311 188.467C31.5447 187.414 31.8068 186.345 32.097 185.261L31.9762 185.228C32.257 184.179 32.5639 183.116 32.8967 182.039L33.0161 182.076C33.333 181.05 33.6733 180.013 34.0368 178.963L33.9187 178.922C34.2725 177.901 34.6482 176.869 35.0455 175.826L35.1623 175.87C35.5493 174.854 35.9569 173.828 36.3848 172.792L36.2693 172.745C36.6827 171.744 37.1151 170.734 37.5662 169.716L37.6805 169.767C38.1188 168.778 38.5749 167.78 39.0484 166.775L38.9353 166.722C39.401 165.734 39.8836 164.738 40.3828 163.735L40.4947 163.791C40.9768 162.823 41.4744 161.848 41.9874 160.867L41.8766 160.809C42.3811 159.845 42.9005 158.874 43.4345 157.898L43.5442 157.958C44.0678 157.001 44.6057 156.038 45.1574 155.07L45.0488 155.008C45.5863 154.066 46.1369 153.118 46.7006 152.166L46.8082 152.23C47.3668 151.287 47.9382 150.339 48.5224 149.387L48.4158 149.322C48.9827 148.398 49.5615 147.47 50.1522 146.539L50.2577 146.606C50.8438 145.682 51.4416 144.754 52.0509 143.823L51.9463 143.754C52.542 142.843 53.1488 141.93 53.7665 141.013L53.8702 141.083C54.481 140.176 55.1024 139.266 55.7344 138.354L55.6317 138.283C56.253 137.386 56.8844 136.486 57.5259 135.584L57.6278 135.657C58.2612 134.766 58.9044 133.873 59.5573 132.978L59.4563 132.905C60.1003 132.022 60.7537 131.137 61.4165 130.25L61.5166 130.325C62.1709 129.45 62.8343 128.572 63.5067 127.693L63.4074 127.617C64.0718 126.749 64.745 125.879 65.4269 125.007L65.5253 125.084C66.1993 124.222 66.8817 123.36 67.5725 122.496L67.4749 122.417C68.1578 121.563 68.849 120.708 69.5482 119.851L69.645 119.93C70.3376 119.082 71.038 118.233 71.7464 117.383L71.6504 117.303C72.3502 116.463 73.0578 115.622 73.7729 114.781L73.8682 114.862C74.5784 114.026 75.2962 113.19 76.0213 112.353L75.9268 112.271C76.6424 111.445 77.3651 110.619 78.095 109.793L78.1887 109.876C78.9159 109.052 79.6502 108.228 80.3915 107.404L80.2986 107.321C81.0287 106.509 81.7656 105.697 82.5092 104.885L82.6014 104.97C83.3447 104.158 84.0948 103.347 84.8515 102.535L84.76 102.45C85.504 101.652 86.2545 100.855 87.0112 100.057L87.1019 100.143C87.8582 99.3462 88.6208 98.5494 89.3897 97.7531L89.2997 97.6663C90.0595 96.8793 90.8253 96.0928 91.5972 95.3068L91.6864 95.3944C92.455 94.6117 93.2295 93.8295 94.01 93.048L93.9215 92.9597C94.6965 92.1836 95.4773 91.4082 96.2639 90.6335L96.3516 90.7226C97.1319 89.9541 97.9179 89.1863 98.7095 88.4194L98.6225 88.3296C99.4122 87.5645 100.208 86.8003 101.008 86.037L101.095 86.1275C101.886 85.373 102.683 84.6194 103.486 83.8669L103.4 83.7757C104.203 83.023 105.01 82.2714 105.824 81.5209L105.908 81.6128C106.712 80.8708 107.522 80.13 108.336 79.3904L108.252 79.2979C109.065 78.5594 109.883 77.8223 110.706 77.0864L110.789 77.1796C111.201 76.8119 111.613 76.4444 112.027 76.0773C112.441 75.7102 112.855 75.3444 113.27 74.9799L113.187 74.8861C114.016 74.1568 114.845 73.4327 115.676 72.7138L115.758 72.8083C116.589 72.0883 117.421 71.3735 118.254 70.6639L118.173 70.5688C119.015 69.8511 119.858 69.1388 120.701 68.4319L120.782 68.5277C121.625 67.8211 122.468 67.1198 123.312 66.4241L123.232 66.3276C124.086 65.6238 124.939 64.9255 125.793 64.2329L125.872 64.3299C126.728 63.6357 127.584 62.9471 128.441 62.2642L128.363 62.1665C129.226 61.4781 130.089 60.7955 130.952 60.1189L131.029 60.2172C131.898 59.5357 132.768 58.8602 133.636 58.1907L133.56 58.0916C134.433 57.4192 135.305 56.7529 136.177 56.0926L136.253 56.1922C137.135 55.524 138.017 54.8621 138.899 54.2065L138.824 54.1062C139.707 53.4501 140.588 52.8004 141.469 52.1571L141.543 52.258C142.439 51.6038 143.334 50.956 144.229 50.315L144.156 50.2134C145.051 49.5721 145.945 48.9375 146.838 48.3096L146.91 48.4119C147.817 47.7743 148.722 47.1437 149.627 46.5201L149.556 46.4172C150.464 45.7914 151.37 45.1725 152.276 44.5608L152.346 44.6644C153.263 44.0444 154.179 43.4317 155.094 42.8264L155.025 42.7222C155.945 42.1127 156.865 41.5107 157.782 40.9162L157.85 41.0211C158.779 40.4194 159.706 39.8254 160.631 39.2392L160.564 39.1336C161.498 38.5418 162.429 37.9578 163.359 37.3819L163.425 37.4881C164.365 36.9055 165.304 36.3311 166.239 35.7649L166.175 35.658C167.122 35.0851 168.066 34.5208 169.008 33.9649L169.071 34.0725C170.024 33.51 170.975 32.9562 171.922 32.4112L171.86 32.3028C172.819 31.7508 173.776 31.2078 174.729 30.6739L174.791 30.7829C175.757 30.2417 176.72 29.7098 177.68 29.1874L177.62 29.0776C178.593 28.5484 179.561 28.029 180.526 27.5193L180.584 27.6299C181.566 27.1114 182.543 26.6031 183.516 26.105L183.459 25.9938C184.443 25.4901 185.423 24.9969 186.398 24.5142L186.454 24.6262C187.451 24.1326 188.444 23.65 189.432 23.1785L189.378 23.0657C190.373 22.5906 191.363 22.1268 192.348 21.6743L192.4 21.7879C193.415 21.3217 194.424 20.8676 195.428 20.4258L195.377 20.3114C196.39 19.8654 197.396 19.4319 198.396 19.011L198.445 19.1262C199.472 18.694 200.492 18.2751 201.505 17.8696L201.458 17.7535C202.491 17.34 203.517 16.9403 204.535 16.5547L204.579 16.6716C205.614 16.2795 206.641 15.9019 207.66 15.539L207.618 15.4213C208.673 15.0454 209.72 14.6853 210.757 14.3411L210.796 14.4597C211.85 14.1097 212.895 13.7761 213.93 13.4591L213.893 13.3396C214.958 13.0134 216.012 12.7047 217.055 12.4138L217.088 12.5342C218.168 12.2331 219.235 11.9511 220.29 11.6882L220.26 11.5669C221.343 11.2971 222.413 11.0475 223.469 10.8183L223.495 10.9404C224.581 10.7049 225.652 10.491 226.708 10.299L226.685 10.176C227.794 9.97431 228.887 9.79665 229.962 9.64329L229.979 9.76703C231.091 9.60853 232.184 9.47604 233.257 9.36986L233.245 9.24547C234.362 9.13495 235.459 9.05287 236.534 8.99957L236.54 9.12442C237.659 9.06893 238.755 9.04469 239.826 9.05207L239.827 8.92708C240.951 8.93482 242.048 8.97731 243.117 9.05499L243.108 9.17966C244.228 9.26102 245.317 9.38107 246.374 9.54028L246.392 9.41667C247.508 9.58468 248.587 9.79619 249.63 10.0518L249.6 10.1732C250.691 10.4407 251.741 10.7567 252.748 11.1216L252.791 11.0041C253.848 11.3872 254.859 11.8241 255.821 12.3157L255.764 12.427C256.753 12.9327 257.691 13.4964 258.574 14.1189L258.646 14.0168C259.55 14.6537 260.398 15.3521 261.188 16.1129L261.101 16.2029C261.495 16.5822 261.874 16.9771 262.238 17.3878C262.602 17.7984 262.949 18.222 263.278 18.6582L263.378 18.5828C264.039 19.4576 264.631 20.3829 265.156 21.3565L265.045 21.4158C265.558 22.3673 266.006 23.3654 266.389 24.4083L266.507 24.3651C266.88 25.3789 267.193 26.4345 267.447 27.5298L267.325 27.558C267.567 28.6017 267.755 29.682 267.891 30.7973L268.015 30.7822C268.144 31.8478 268.225 32.945 268.258 34.0722L268.133 34.0759C268.165 35.1441 268.154 36.2397 268.101 37.3614L268.226 37.3673C268.175 38.4382 268.086 39.5326 267.96 40.6494L267.836 40.6354C267.715 41.6996 267.56 42.7844 267.371 43.8889L267.494 43.91C267.313 44.971 267.1 46.05 266.857 47.1461L266.735 47.119C266.501 48.1722 266.239 49.2413 265.949 50.3257L266.07 50.358C265.789 51.4072 265.482 52.4705 265.15 53.5473L265.03 53.5104C264.713 54.5358 264.373 55.5735 264.009 56.6229L264.127 56.6638C263.774 57.6852 263.398 58.7176 263.001 59.7606L262.884 59.7161C262.497 60.7321 262.089 61.7581 261.661 62.7937L261.777 62.8415C261.363 63.8422 260.931 64.8517 260.48 65.8698L260.366 65.8191C259.927 66.8085 259.471 67.8059 258.998 68.8108L259.111 68.8641C258.645 69.8525 258.163 70.8483 257.663 71.8509L257.551 71.7952C257.069 72.7634 256.572 73.7381 256.059 74.7189L256.17 74.7768C255.665 75.7415 255.146 76.7121 254.612 77.6882L254.502 77.6282C253.978 78.5855 253.441 79.5482 252.889 80.5159L252.997 80.5779C252.46 81.5204 251.909 82.4679 251.346 83.4198L251.238 83.3561C250.679 84.2994 250.108 85.2471 249.524 86.199L249.63 86.2644C249.063 87.1882 248.485 88.1159 247.894 89.0473L247.788 88.9803C247.202 89.9046 246.605 90.8324 245.995 91.7637L246.1 91.8321C245.504 92.7428 244.897 93.6566 244.28 94.5735L244.176 94.5037C243.565 95.4104 242.944 96.32 242.312 97.2323L242.415 97.3035C241.793 98.2004 241.162 99.0999 240.52 100.002L240.418 99.9294C239.785 100.82 239.142 101.713 238.489 102.608L238.59 102.681C237.946 103.564 237.292 104.449 236.63 105.336L236.53 105.261C235.875 106.137 235.212 107.014 234.539 107.893L234.639 107.969C233.974 108.837 233.301 109.708 232.619 110.579L232.521 110.502C231.847 111.364 231.164 112.227 230.474 113.091L230.571 113.169C229.888 114.023 229.197 114.878 228.498 115.735L228.401 115.656C227.709 116.504 227.008 117.353 226.3 118.203L226.396 118.283C225.696 119.123 224.988 119.964 224.273 120.805L224.178 120.724C223.468 121.56 222.75 122.396 222.025 123.233L222.119 123.315C221.404 124.141 220.681 124.967 219.951 125.793L219.857 125.711C219.13 126.534 218.396 127.358 217.655 128.182L217.748 128.266C217.017 129.077 216.281 129.889 215.537 130.701L215.445 130.616C214.701 131.428 213.951 132.239 213.195 133.051L213.286 133.136C212.542 133.934 211.792 134.732 211.035 135.529L210.944 135.443C210.188 136.24 209.425 137.037 208.657 137.833L208.746 137.92C207.987 138.707 207.221 139.493 206.449 140.279L206.36 140.192C205.591 140.974 204.817 141.757 204.036 142.538L204.125 142.627C203.35 143.403 202.569 144.178 201.782 144.953L201.695 144.864C200.914 145.632 200.128 146.4 199.337 147.167L199.424 147.257C198.634 148.022 197.839 148.786 197.038 149.549L196.952 149.459C196.16 150.213 195.363 150.967 194.561 151.719L194.646 151.81C193.844 152.563 193.036 153.315 192.223 154.065L192.138 153.973C191.334 154.715 190.525 155.456 189.71 156.196L189.794 156.288C188.981 157.027 188.163 157.764 187.34 158.5L187.257 158.407C186.846 158.774 186.433 159.142 186.019 159.509Z" stroke="#FFFBD5" stroke-width="0.25" stroke-dasharray="3.33 3.33"/>
<path d="M151.449 174.187C150.895 174.187 150.343 174.186 149.791 174.184L149.79 174.309C148.686 174.304 147.585 174.296 146.487 174.283L146.488 174.158C145.389 174.144 144.292 174.127 143.198 174.105L143.195 174.23C142.089 174.208 140.986 174.182 139.886 174.151L139.889 174.027C138.79 173.996 137.694 173.961 136.601 173.922L136.596 174.047C135.491 174.007 134.389 173.963 133.29 173.914L133.296 173.79C132.194 173.741 131.097 173.688 130.003 173.631L129.997 173.756C128.894 173.698 127.796 173.636 126.701 173.57L126.708 173.445C125.606 173.378 124.508 173.307 123.413 173.231L123.405 173.356C122.306 173.28 121.211 173.2 120.12 173.115L120.13 172.99C119.026 172.905 117.927 172.815 116.832 172.72L116.822 172.845C115.726 172.75 114.636 172.651 113.55 172.548L113.561 172.423C112.457 172.318 111.357 172.209 110.263 172.095L110.25 172.219C109.155 172.105 108.065 171.987 106.98 171.864L106.994 171.74C105.893 171.615 104.797 171.486 103.706 171.353L103.691 171.477C102.597 171.343 101.508 171.204 100.424 171.061L100.441 170.937C99.3431 170.792 98.2512 170.643 97.1654 170.489L97.1478 170.613C96.0545 170.458 94.9673 170.298 93.8864 170.134L93.9051 170.01C92.8111 169.844 91.7235 169.674 90.6426 169.499L90.6226 169.622C89.5312 169.445 88.4465 169.264 87.3688 169.078L87.3901 168.955C86.2999 168.767 85.2168 168.574 84.141 168.377L84.1184 168.5C83.03 168.3 81.9489 168.096 80.8755 167.887L80.8994 167.764C79.8131 167.552 78.7347 167.336 77.6643 167.115L77.639 167.238C76.5547 167.014 75.4787 166.785 74.4111 166.552L74.4378 166.43C73.3555 166.194 72.2819 165.953 71.2171 165.707L71.189 165.828C70.1106 165.579 69.0413 165.325 67.9814 165.066L68.011 164.945C66.9328 164.682 65.8643 164.413 64.8057 164.14L64.7745 164.261C63.704 163.985 62.6437 163.704 61.5937 163.418L61.6266 163.298C60.5528 163.005 59.49 162.708 58.4382 162.405L58.4037 162.525C57.3438 162.22 56.2952 161.91 55.2581 161.595L55.2944 161.476C54.2258 161.151 53.1694 160.821 52.1257 160.486L52.0875 160.605C51.0341 160.267 49.9935 159.923 48.9659 159.575L49.0061 159.456C47.9512 159.098 46.91 158.735 45.8831 158.366L45.8408 158.484C44.7936 158.108 43.7611 157.726 42.7435 157.339L42.788 157.223C41.7534 156.829 40.7344 156.43 39.7313 156.026L39.6846 156.142C38.6458 155.723 37.6241 155.298 36.6198 154.867L36.6691 154.752C35.648 154.315 34.645 153.871 33.6606 153.422L33.6087 153.536C32.5957 153.073 31.6024 152.605 30.629 152.13L30.6838 152.018C29.6765 151.527 28.6908 151.03 27.7271 150.527L27.6693 150.637C26.68 150.121 25.7139 149.598 24.7715 149.068L24.8327 148.959C23.8644 148.415 22.9213 147.865 22.0038 147.308L21.939 147.415C20.9755 146.83 20.0404 146.238 19.1342 145.639L19.2031 145.535C18.2665 144.916 17.361 144.29 16.4874 143.657L16.414 143.759C15.5048 143.1 14.6298 142.434 13.7901 141.76L13.8683 141.663C12.9942 140.962 12.1585 140.253 11.3621 139.537L11.2785 139.63C10.4427 138.878 9.65001 138.118 8.90157 137.351L8.99106 137.263C8.20709 136.459 7.47197 135.647 6.78697 134.827L6.69103 134.907C5.9682 134.041 5.30083 133.167 4.69044 132.284L4.79327 132.213C4.15441 131.288 3.57842 130.355 3.06699 129.414L2.95716 129.474C2.4204 128.486 1.95426 127.488 1.56075 126.482L1.67716 126.437C1.27238 125.402 0.944971 124.358 0.697057 123.306L0.575391 123.335C0.321712 122.258 0.150731 121.173 0.0648047 120.08L0.18942 120.07C0.146572 119.525 0.125 118.978 0.125 118.429C0.125 117.881 0.146572 117.334 0.189421 116.789L0.0648058 116.779C0.150733 115.686 0.321715 114.601 0.575394 113.524L0.697061 113.553C0.944975 112.501 1.27239 111.457 1.67716 110.422L1.56075 110.377C1.95426 109.371 2.4204 108.373 2.95716 107.385L3.067 107.445C3.57843 106.504 4.15442 105.57 4.79327 104.646L4.69045 104.575C5.30083 103.692 5.9682 102.818 6.69103 101.952L6.78697 102.032C7.47196 101.212 8.20708 100.399 8.99106 99.5955L8.90156 99.5082C9.65 98.7406 10.4427 97.9808 11.2785 97.2292L11.3621 97.3222C12.1584 96.606 12.9942 95.8972 13.8683 95.1962L13.7901 95.0987C14.6298 94.4252 15.5047 93.759 16.414 93.1003L16.4874 93.2015C17.361 92.5687 18.2665 91.9427 19.2031 91.3239L19.1342 91.2196C20.0404 90.621 20.9755 90.0291 21.939 89.4442L22.0038 89.5511C22.9212 88.9942 23.8644 88.4436 24.8327 87.8996L24.7715 87.7907C25.7139 87.2613 26.68 86.7381 27.6692 86.2214L27.7271 86.3322C28.6908 85.8289 29.6765 85.3317 30.6838 84.8408L30.629 84.7284C31.6023 84.2541 32.5957 83.7857 33.6086 83.3233L33.6605 83.437C34.645 82.9877 35.6479 82.5441 36.669 82.1064L36.6198 81.9915C37.624 81.561 38.6458 81.1362 39.6845 80.7173L39.7313 80.8332C40.7343 80.4287 41.7534 80.0297 42.788 79.6362L42.7435 79.5194C43.761 79.1324 44.7936 78.7509 45.8408 78.3749L45.8831 78.4925C46.91 78.1238 47.9511 77.7604 49.0061 77.4025L48.9659 77.2841C49.9934 76.9355 51.034 76.592 52.0874 76.2538L52.1256 76.3728C53.1694 76.0378 54.2258 75.7079 55.2944 75.3833L55.2581 75.2637C56.2951 74.9487 57.3438 74.6386 58.4037 74.3337L58.4382 74.4538C59.4899 74.1512 60.5528 73.8537 61.6265 73.5612L61.5937 73.4406C62.6437 73.1546 63.704 72.8735 64.7745 72.5973L64.8057 72.7184C65.8643 72.4453 66.9328 72.1771 68.011 71.9139L67.9813 71.7924C69.0413 71.5336 70.1106 71.2796 71.1889 71.0305L71.2171 71.1523C72.2818 70.9063 73.3555 70.665 74.4378 70.4286L74.4111 70.3065C75.4787 70.0733 76.5547 69.8448 77.639 69.6211L77.6642 69.7435C78.7347 69.5227 79.8131 69.3064 80.8994 69.095L80.8755 68.9723C81.9489 68.7633 83.0299 68.5589 84.1184 68.3593L84.141 68.4822C85.2168 68.2849 86.2999 68.0921 87.39 67.904L87.3688 67.7808C88.4465 67.5949 89.5312 67.4134 90.6226 67.2366L90.6425 67.36C91.7235 67.1849 92.8111 67.0143 93.9051 66.8483L93.8863 66.7247C94.9673 66.5607 96.0545 66.4012 97.1478 66.2462L97.1653 66.3699C98.2512 66.216 99.3431 66.0665 100.441 65.9216L100.424 65.7977C101.508 65.6547 102.597 65.5162 103.691 65.3821L103.706 65.5061C104.797 65.3725 105.893 65.2434 106.994 65.1188L106.98 64.9945C108.065 64.8718 109.155 64.7534 110.25 64.6394L110.263 64.7638C111.357 64.6499 112.457 64.5404 113.561 64.4354L113.55 64.3109C114.636 64.2077 115.726 64.1088 116.822 64.0142L116.832 64.1388C117.927 64.0443 119.026 63.9542 120.13 63.8686L120.12 63.7439C121.211 63.6593 122.306 63.579 123.405 63.5031L123.413 63.6278C124.507 63.5522 125.606 63.4809 126.708 63.414L126.701 63.2893C127.796 63.2229 128.894 63.1608 129.997 63.1031L130.003 63.228C131.097 63.1707 132.194 63.1178 133.296 63.0693L133.29 62.9444C134.389 62.896 135.491 62.8519 136.596 62.8122L136.601 62.9371C137.694 62.8978 138.79 62.8629 139.889 62.8323L139.886 62.7073C140.986 62.6767 142.089 62.6504 143.195 62.6284L143.198 62.7534C144.292 62.7317 145.389 62.7143 146.488 62.7013L146.487 62.5763C147.585 62.5633 148.686 62.5545 149.79 62.5502L149.791 62.6752C150.343 62.673 150.895 62.6719 151.449 62.6719C152.002 62.6719 152.554 62.673 153.106 62.6752L153.107 62.5502C154.211 62.5545 155.312 62.5633 156.41 62.5763L156.409 62.7013C157.508 62.7144 158.605 62.7317 159.699 62.7534L159.702 62.6284C160.808 62.6504 161.911 62.6767 163.011 62.7073L163.008 62.8323C164.107 62.8629 165.203 62.8979 166.296 62.9371L166.301 62.8122C167.406 62.8519 168.508 62.896 169.607 62.9444L169.601 63.0693C170.703 63.1178 171.8 63.1707 172.894 63.228L172.9 63.1031C174.003 63.1608 175.101 63.2229 176.196 63.2893L176.189 63.414C177.291 63.4809 178.39 63.5522 179.484 63.6278L179.492 63.5031C180.591 63.579 181.686 63.6593 182.777 63.7439L182.767 63.8686C183.871 63.9542 184.97 64.0443 186.065 64.1388L186.075 64.0142C187.171 64.1088 188.261 64.2077 189.347 64.3109L189.336 64.4354C190.44 64.5404 191.54 64.6499 192.634 64.7638L192.647 64.6394C193.742 64.7534 194.832 64.8718 195.917 64.9945L195.903 65.1188C197.004 65.2434 198.1 65.3725 199.191 65.5061L199.206 65.3821C200.3 65.5162 201.389 65.6547 202.473 65.7977L202.456 65.9216C203.554 66.0665 204.646 66.216 205.732 66.3699L205.749 66.2462C206.843 66.4012 207.93 66.5607 209.011 66.7247L208.992 66.8483C210.086 67.0143 211.173 67.1849 212.254 67.36L212.274 67.2366C213.366 67.4134 214.45 67.5949 215.528 67.7808L215.507 67.904C216.597 68.0921 217.68 68.2849 218.756 68.4822L218.779 68.3593C219.867 68.5589 220.948 68.7633 222.021 68.9723L221.998 69.095C223.084 69.3065 224.162 69.5227 225.233 69.7435L225.258 69.6211C226.342 69.8448 227.418 70.0733 228.486 70.3065L228.459 70.4286C229.542 70.665 230.615 70.9063 231.68 71.1523L231.708 71.0305C232.786 71.2796 233.856 71.5336 234.916 71.7924L234.886 71.9139C235.964 72.1771 237.033 72.4453 238.091 72.7184L238.123 72.5974C239.193 72.8735 240.253 73.1546 241.303 73.4406L241.27 73.5612C242.344 73.8537 243.407 74.1512 244.459 74.4538L244.493 74.3337C245.553 74.6386 246.602 74.9487 247.639 75.2637L247.603 75.3833C248.671 75.7079 249.728 76.0378 250.771 76.3728L250.81 76.2538C251.863 76.592 252.904 76.9355 253.931 77.2841L253.891 77.4025C254.946 77.7604 255.987 78.1238 257.014 78.4925L257.056 78.3749C258.103 78.7509 259.136 79.1324 260.154 79.5194L260.109 79.6362C261.144 80.0297 262.163 80.4287 263.166 80.8332L263.212 80.7173C264.251 81.1362 265.273 81.561 266.277 81.9915L266.228 82.1064C267.249 82.5441 268.252 82.9877 269.236 83.437L269.288 83.3233C270.301 83.7857 271.295 84.2541 272.268 84.7284L272.213 84.8408C273.22 85.3317 274.206 85.8289 275.17 86.3322L275.228 86.2214C276.217 86.7381 277.183 87.2612 278.126 87.7907L278.064 87.8996C279.033 88.4436 279.976 88.9942 280.893 89.5511L280.958 89.4442C281.922 90.0291 282.857 90.621 283.763 91.2196L283.694 91.3239C284.631 91.9427 285.536 92.5687 286.41 93.2015L286.483 93.1003C287.392 93.759 288.267 94.4252 289.107 95.0987L289.029 95.1962C289.903 95.8972 290.739 96.606 291.535 97.3222L291.619 97.2293C292.454 97.9808 293.247 98.7406 293.995 99.5082L293.906 99.5955C294.69 100.399 295.425 101.212 296.11 102.032L296.206 101.952C296.929 102.818 297.596 103.692 298.207 104.575L298.104 104.646C298.743 105.57 299.319 106.504 299.83 107.445L299.94 107.385C300.477 108.373 300.943 109.371 301.336 110.377L301.22 110.422C301.625 111.457 301.952 112.501 302.2 113.553L302.322 113.524C302.575 114.601 302.746 115.686 302.832 116.779L302.708 116.789C302.75 117.334 302.772 117.881 302.772 118.429C302.772 118.978 302.75 119.525 302.708 120.07L302.832 120.08C302.746 121.173 302.575 122.258 302.322 123.335L302.2 123.306C301.952 124.358 301.625 125.402 301.22 126.437L301.336 126.482C300.943 127.488 300.477 128.486 299.94 129.474L299.83 129.414C299.319 130.355 298.743 131.288 298.104 132.213L298.207 132.284C297.596 133.167 296.929 134.041 296.206 134.907L296.11 134.827C295.425 135.647 294.69 136.459 293.906 137.263L293.995 137.351C293.247 138.118 292.454 138.878 291.619 139.63L291.535 139.537C290.739 140.253 289.903 140.962 289.029 141.663L289.107 141.76C288.267 142.434 287.392 143.1 286.483 143.759L286.41 143.657C285.536 144.29 284.631 144.916 283.694 145.535L283.763 145.639C282.857 146.238 281.922 146.83 280.958 147.415L280.893 147.308C279.976 147.865 279.033 148.415 278.064 148.959L278.126 149.068C277.183 149.598 276.217 150.121 275.228 150.637L275.17 150.527C274.206 151.03 273.221 151.527 272.213 152.018L272.268 152.13C271.295 152.605 270.301 153.073 269.288 153.535L269.236 153.422C268.252 153.871 267.249 154.315 266.228 154.752L266.277 154.867C265.273 155.298 264.251 155.723 263.212 156.142L263.166 156.026C262.163 156.43 261.144 156.829 260.109 157.223L260.154 157.339C259.136 157.726 258.103 158.108 257.056 158.484L257.014 158.366C255.987 158.735 254.946 159.098 253.891 159.456L253.931 159.575C252.904 159.923 251.863 160.267 250.81 160.605L250.771 160.486C249.728 160.821 248.671 161.151 247.603 161.476L247.639 161.595C246.602 161.91 245.553 162.22 244.493 162.525L244.459 162.405C243.407 162.708 242.344 163.005 241.27 163.298L241.303 163.418C240.253 163.704 239.193 163.985 238.123 164.261L238.091 164.14C237.033 164.413 235.964 164.682 234.886 164.945L234.916 165.066C233.856 165.325 232.786 165.579 231.708 165.828L231.68 165.707C230.615 165.953 229.542 166.194 228.459 166.43L228.486 166.552C227.418 166.785 226.342 167.014 225.258 167.238L225.233 167.115C224.162 167.336 223.084 167.552 221.998 167.764L222.022 167.887C220.948 168.095 219.867 168.3 218.779 168.5L218.756 168.377C217.68 168.574 216.597 168.767 215.507 168.955L215.528 169.078C214.451 169.264 213.366 169.445 212.274 169.622L212.254 169.499C211.174 169.674 210.086 169.844 208.992 170.01L209.011 170.134C207.93 170.298 206.843 170.458 205.749 170.613L205.732 170.489C204.646 170.643 203.554 170.792 202.456 170.937L202.473 171.061C201.389 171.204 200.3 171.343 199.206 171.477L199.191 171.353C198.1 171.486 197.004 171.615 195.903 171.74L195.917 171.864C194.832 171.987 193.742 172.105 192.647 172.219L192.634 172.095C191.54 172.209 190.44 172.318 189.336 172.423L189.348 172.548C188.262 172.651 187.171 172.75 186.075 172.845L186.065 172.72C184.97 172.815 183.871 172.905 182.767 172.99L182.777 173.115C181.686 173.2 180.592 173.28 179.492 173.356L179.484 173.231C178.39 173.307 177.291 173.378 176.189 173.445L176.196 173.57C175.101 173.636 174.003 173.698 172.9 173.756L172.894 173.631C171.8 173.688 170.703 173.741 169.601 173.79L169.607 173.914C168.508 173.963 167.406 174.007 166.301 174.047L166.296 173.922C165.203 173.961 164.107 173.996 163.008 174.027L163.011 174.151C161.911 174.182 160.808 174.208 159.702 174.23L159.699 174.105C158.605 174.127 157.508 174.144 156.409 174.158L156.41 174.283C155.312 174.296 154.211 174.304 153.107 174.309L153.106 174.184C152.554 174.186 152.002 174.187 151.449 174.187Z" stroke="#FFFBD5" stroke-width="0.25" stroke-dasharray="3.33 3.33"/>
<path d="M190.262 114.103C190.251 114.665 190.239 115.225 190.225 115.784L190.35 115.787C190.323 116.907 190.29 118.022 190.251 119.133L190.126 119.128C190.087 120.25 190.042 121.367 189.99 122.479L190.115 122.485C190.064 123.602 190.006 124.715 189.943 125.823L189.818 125.815C189.754 126.937 189.684 128.054 189.608 129.165L189.733 129.174C189.656 130.292 189.574 131.405 189.485 132.513L189.361 132.503C189.272 133.62 189.176 134.731 189.075 135.837L189.2 135.848C189.098 136.968 188.989 138.081 188.875 139.188L188.751 139.175C188.636 140.288 188.515 141.395 188.388 142.495L188.512 142.509C188.383 143.627 188.248 144.738 188.107 145.842L187.983 145.826C187.841 146.94 187.693 148.047 187.538 149.146L187.662 149.163C187.506 150.273 187.344 151.374 187.177 152.468L187.053 152.449C186.882 153.563 186.705 154.669 186.521 155.766L186.645 155.786C186.46 156.895 186.268 157.994 186.071 159.085L185.948 159.062C185.748 160.166 185.542 161.261 185.329 162.346L185.452 162.37C185.235 163.478 185.012 164.575 184.783 165.662L184.66 165.637C184.428 166.737 184.189 167.827 183.945 168.906L184.067 168.933C183.818 170.028 183.563 171.111 183.302 172.182L183.181 172.153C182.913 173.251 182.638 174.338 182.357 175.411L182.478 175.442C182.192 176.535 181.9 177.613 181.601 178.678L181.48 178.644C181.176 179.728 180.865 180.798 180.547 181.852L180.667 181.888C180.342 182.969 180.01 184.033 179.671 185.081L179.552 185.043C179.204 186.121 178.848 187.183 178.486 188.226L178.604 188.267C178.232 189.338 177.854 190.389 177.468 191.422L177.351 191.379C176.955 192.439 176.552 193.478 176.141 194.497L176.257 194.544C175.834 195.595 175.404 196.623 174.966 197.629L174.851 197.579C174.399 198.617 173.94 199.631 173.473 200.62L173.586 200.673C173.1 201.702 172.606 202.703 172.105 203.677L171.994 203.619C171.472 204.632 170.942 205.615 170.403 206.566L170.512 206.628C169.95 207.622 169.378 208.582 168.799 209.507L168.693 209.44C168.086 210.408 167.471 211.337 166.847 212.225L166.95 212.297C166.29 213.236 165.622 214.13 164.944 214.977L164.847 214.899C164.128 215.799 163.399 216.645 162.662 217.438L162.753 217.523C161.966 218.369 161.168 219.153 160.36 219.874L160.277 219.781C159.419 220.546 158.552 221.239 157.674 221.857L157.746 221.959C156.804 222.623 155.85 223.201 154.886 223.689L154.829 223.578C153.812 224.094 152.783 224.511 151.746 224.823L151.782 224.943C150.699 225.269 149.606 225.483 148.504 225.58L148.493 225.456C147.941 225.505 147.387 225.524 146.831 225.514C146.276 225.503 145.723 225.463 145.173 225.393L145.158 225.517C144.06 225.378 142.976 225.123 141.906 224.757L141.946 224.638C140.921 224.287 139.909 223.833 138.912 223.278L138.851 223.387C137.906 222.863 136.975 222.249 136.058 221.55L136.134 221.451C135.28 220.8 134.439 220.075 133.611 219.278L133.524 219.368C132.745 218.618 131.977 217.804 131.222 216.929L131.316 216.847C130.609 216.028 129.913 215.154 129.229 214.228L129.128 214.303C128.483 213.43 127.848 212.512 127.225 211.549L127.33 211.481C126.74 210.57 126.16 209.618 125.591 208.629L125.482 208.691C124.938 207.745 124.403 206.764 123.878 205.749L123.989 205.692C123.488 204.721 122.995 203.719 122.511 202.687L122.398 202.74C121.934 201.749 121.478 200.73 121.031 199.684L121.146 199.634C120.717 198.629 120.296 197.598 119.883 196.544L119.767 196.589C119.367 195.568 118.976 194.524 118.592 193.458L118.71 193.415C118.339 192.382 117.975 191.328 117.619 190.253L117.5 190.293C117.154 189.246 116.815 188.181 116.484 187.097L116.603 187.061C116.281 186.004 115.965 184.93 115.658 183.839L115.537 183.873C115.238 182.813 114.947 181.737 114.662 180.645L114.783 180.614C114.506 179.548 114.235 178.467 113.972 177.373L113.85 177.402C113.592 176.327 113.34 175.238 113.095 174.135L113.217 174.108C112.977 173.025 112.744 171.93 112.517 170.822L112.395 170.847C112.174 169.766 111.96 168.675 111.753 167.571L111.876 167.548C111.672 166.461 111.475 165.363 111.284 164.254L111.161 164.276C110.973 163.181 110.791 162.075 110.616 160.96L110.739 160.941C110.568 159.849 110.403 158.747 110.245 157.637L110.121 157.654C109.965 156.557 109.815 155.451 109.672 154.337L109.796 154.321C109.654 153.218 109.519 152.106 109.39 150.986L109.265 151.001C109.139 149.901 109.019 148.794 108.905 147.68L109.029 147.667C108.916 146.563 108.81 145.452 108.709 144.333L108.585 144.344C108.486 143.236 108.393 142.121 108.306 140.999L108.43 140.989C108.345 139.885 108.266 138.774 108.193 137.658L108.068 137.666C107.996 136.555 107.929 135.439 107.869 134.316L107.994 134.31C107.935 133.201 107.882 132.087 107.835 130.967L107.71 130.972C107.663 129.862 107.623 128.747 107.588 127.626L107.713 127.623C107.679 126.509 107.651 125.391 107.629 124.267L107.504 124.27C107.483 123.16 107.467 122.047 107.458 120.928L107.583 120.927C107.574 119.813 107.57 118.695 107.573 117.573L107.448 117.573C107.451 116.461 107.46 115.346 107.475 114.226L107.6 114.228C107.608 113.669 107.617 113.108 107.627 112.547C107.638 111.986 107.65 111.425 107.663 110.866L107.538 110.863C107.566 109.744 107.599 108.628 107.638 107.518L107.763 107.522C107.802 106.401 107.847 105.283 107.899 104.171L107.774 104.165C107.825 103.048 107.883 101.935 107.946 100.828L108.071 100.835C108.135 99.7132 108.205 98.5965 108.281 97.4852L108.156 97.4767C108.233 96.3582 108.315 95.2452 108.404 94.1377L108.528 94.1476C108.617 93.0304 108.712 91.9189 108.814 90.8134L108.689 90.802C108.791 89.6826 108.9 88.5694 109.014 87.4625L109.138 87.4753C109.253 86.362 109.374 85.2552 109.501 84.1551L109.377 84.1408C109.506 83.0229 109.641 81.9119 109.782 80.8081L109.906 80.824C110.048 79.7101 110.196 78.6035 110.351 77.5046L110.227 77.4873C110.383 76.3777 110.544 75.2758 110.712 74.1821L110.836 74.2011C111.007 73.087 111.184 71.9814 111.367 70.8844L111.244 70.8638C111.429 69.7554 111.621 68.6558 111.818 67.5655L111.941 67.5878C112.141 66.4838 112.347 65.3893 112.56 64.3046L112.437 64.2806C112.654 63.1727 112.877 62.075 113.106 60.9879L113.229 61.0137C113.461 59.913 113.699 58.8232 113.944 57.7446L113.822 57.7169C114.071 56.6222 114.326 55.5391 114.587 54.4679L114.708 54.4975C114.976 53.3988 115.251 52.3126 115.532 51.2395L115.411 51.2079C115.697 50.1156 115.989 49.0369 116.288 47.972L116.408 48.0058C116.713 46.9219 117.024 45.8524 117.341 44.7978L117.222 44.7618C117.547 43.6817 117.879 42.6173 118.218 41.569L118.337 41.6074C118.685 40.529 119.041 39.4677 119.403 38.4241L119.285 38.3831C119.657 37.3126 120.035 36.2607 120.421 35.228L120.538 35.2717C120.934 34.2117 121.337 33.1719 121.747 32.153L121.632 32.1063C122.055 31.0555 122.485 30.0269 122.923 29.0212L123.037 29.0711C123.489 28.0327 123.949 27.0188 124.416 26.0302L124.303 25.9768C124.789 24.9482 125.283 23.9469 125.784 22.9736L125.895 23.0309C126.417 22.0177 126.947 21.0351 127.485 20.0841L127.377 20.0225C127.939 19.0281 128.511 18.068 129.09 17.1433L129.196 17.2097C129.802 16.242 130.418 15.3134 131.042 14.4251L130.939 14.3533C131.599 13.4145 132.267 12.5205 132.945 11.6729L133.042 11.7509C133.761 10.8517 134.49 10.0049 135.227 9.21249L135.136 9.12733C135.923 8.28145 136.721 7.49701 137.529 6.77625L137.612 6.86951C138.469 6.10429 139.337 5.41148 140.215 4.79362L140.143 4.69142C141.085 4.02771 142.039 3.44971 143.003 2.96071L143.059 3.07218C144.077 2.55583 145.106 2.13963 146.143 1.82722L146.107 1.70753C147.19 1.38152 148.283 1.16751 149.385 1.06989L149.396 1.1944C149.948 1.14554 150.502 1.12607 151.058 1.13654C151.613 1.14701 152.166 1.18732 152.715 1.25692L152.731 1.13291C153.829 1.27197 154.913 1.527 155.983 1.89355L155.942 2.0118C156.967 2.36307 157.979 2.8177 158.977 3.37201L159.038 3.26275C159.983 3.7877 160.914 4.40121 161.831 5.09994L161.755 5.19935C162.608 5.84982 163.45 6.57482 164.278 7.37179L164.364 7.28173C165.144 8.03239 165.912 8.84632 166.667 9.72125L166.572 9.80291C167.28 10.6225 167.976 11.4961 168.66 12.4218L168.761 12.3475C169.406 13.2201 170.04 14.1386 170.664 15.1015L170.559 15.1694C171.149 16.0806 171.729 17.0317 172.298 18.0216L172.407 17.9592C172.951 18.9051 173.486 19.886 174.01 20.9009L173.899 20.9583C174.401 21.929 174.894 22.9308 175.378 23.9629L175.491 23.9099C175.955 24.9013 176.411 25.9206 176.858 26.9667L176.743 27.0158C177.172 28.0213 177.593 29.0518 178.006 30.1064L178.122 30.0609C178.522 31.0824 178.913 32.1265 179.296 33.1924L179.179 33.2347C179.55 34.2684 179.914 35.3226 180.27 36.3968L180.388 36.3575C180.735 37.404 181.074 38.4695 181.405 39.5531L181.285 39.5897C181.608 40.6462 181.923 41.7201 182.231 42.8109L182.351 42.777C182.65 43.8373 182.942 44.9135 183.227 46.005L183.106 46.0365C183.383 47.1023 183.654 48.1827 183.917 49.2774L184.039 49.2481C184.297 50.3235 184.549 51.4125 184.794 52.5147L184.672 52.5418C184.912 53.6247 185.145 54.7204 185.372 55.8285L185.494 55.8035C185.715 56.8837 185.929 57.9757 186.136 59.079L186.013 59.1021C186.217 60.1891 186.414 61.2871 186.605 62.3957L186.728 62.3746C186.916 63.4695 187.098 64.5749 187.273 65.6902L187.149 65.7096C187.321 66.8015 187.486 67.903 187.644 69.0137L187.768 68.9961C187.924 70.093 188.074 71.199 188.217 72.3136L188.093 72.3296C188.235 73.4326 188.37 74.5442 188.499 75.6639L188.623 75.6496C188.75 76.7489 188.87 77.856 188.984 78.9707L188.86 78.9834C188.973 80.0873 189.079 81.1987 189.179 82.3171L189.304 82.306C189.403 83.4143 189.496 84.5295 189.583 85.6515L189.458 85.6612C189.544 86.7653 189.623 87.8758 189.696 88.9926L189.821 88.9845C189.893 90.0949 189.959 91.2115 190.019 92.3339L189.895 92.3406C189.954 93.4492 190.007 94.5635 190.054 95.6832L190.179 95.678C190.226 96.788 190.266 97.9034 190.301 99.0239L190.176 99.0277C190.21 100.141 190.238 101.26 190.26 102.383L190.384 102.38C190.406 103.49 190.422 104.604 190.431 105.722L190.306 105.723C190.315 106.837 190.318 107.955 190.316 109.077L190.441 109.077C190.438 110.189 190.429 111.304 190.414 112.424L190.289 112.422C190.281 112.982 190.272 113.542 190.262 114.103Z" stroke="#FFFBD5" stroke-width="0.25" stroke-dasharray="3.33 3.33"/>
<path d="M261.981 112.681C261.981 174.705 211.7 224.986 149.675 224.986C87.6506 224.986 37.3696 174.705 37.3696 112.681C37.3696 50.656 87.6506 0.375 149.675 0.375C211.7 0.375 261.981 50.656 261.981 112.681Z" stroke="#FCF5B1" stroke-width="0.75"/>
<path d="M84 107C84 109.209 82.2091 111 80 111C77.7909 111 76 109.209 76 107C76 104.791 77.7909 103 80 103C82.2091 103 84 104.791 84 107Z" fill="#FCF5B1"/>
<path d="M215 99C215 101.209 213.209 103 211 103C208.791 103 207 101.209 207 99C207 96.7909 208.791 95 211 95C213.209 95 215 96.7909 215 99Z" fill="#FCF5B1"/>
<path d="M190 54C190 56.2091 188.209 58 186 58C183.791 58 182 56.2091 182 54C182 51.7909 183.791 50 186 50C188.209 50 190 51.7909 190 54Z" fill="#FCF5B1"/>
</svg>
